<svg xmlns="http://www.w3.org/2000/svg" width="25" height="25" viewBox="0 0 42 42">
    <g fill="none" fill-rule="evenodd">
        <path d="M14.712 20.088H8.036a4 4 0 0 1-4-4v-4.056a8.037 8.037 0 0 1 6.418-7.872c-1.578 4.401-2.331 10.2.491 11.381 2.765 1.158 3.65 2.77 3.767 4.547zm-.47 3.73c-.726 3.287-1.5 6.463 3.802 7.915v1.712a4 4 0 0 1-4 4H9.906a6.816 6.816 0 0 1-6.815-6.816v-2.815a4 4 0 0 1 4-4h6.953c.066 0 .132.001.198.005zm6.513 8.343c3.179-.042 3.151-2.75 13.115-.994.924.163 2.123-.104 3.445-.726a8.422 8.422 0 0 1-16.56 1.72z" fill="currentColor" opacity=".1"/>
        <g transform="translate(2 3)">
            <path d="M8.5 1A7.5 7.5 0 0 0 1 8.5V13a3 3 0 0 0 3 3h9a3 3 0 0 0 3-3V4a3 3 0 0 0-3-3H8.5zM4 20a3 3 0 0 0-3 3v4.5A7.5 7.5 0 0 0 8.5 35H13a3 3 0 0 0 3-3v-9a3 3 0 0 0-3-3H4zM23 1a3 3 0 0 0-3 3v9a3 3 0 0 0 3 3h9a3 3 0 0 0 3-3V8.5A7.5 7.5 0 0 0 27.5 1H23z" stroke="currentColor" stroke-width="2"/>
            <path d="m35.822 32.44 2.67 2.607a.988.988 0 0 1 .01 1.406l-.01.008a1 1 0 0 1-1.405.008l-2.67-2.607a.988.988 0 0 1-.009-1.406l.008-.008a1 1 0 0 1 1.406-.008z" fill="currentColor"/>
            <circle stroke="currentColor" stroke-width="2" cx="27.5" cy="27.5" r="7.5"/>
        </g>
    </g>
</svg>
